<svg xmlns="http://www.w3.org/2000/svg" width="11.624" height="16.532" viewBox="0 0 11.624 16.532">
  <g id="_001-placeholder" data-name="001-placeholder" transform="translate(-76)">
    <g id="Group_15" data-name="Group 15" transform="translate(76)">
      <g id="Group_14" data-name="Group 14" transform="translate(0)">
        <path id="Path_59" data-name="Path 59" d="M81.812,0a5.813,5.813,0,0,0-4.945,8.868L81.481,16.3a.484.484,0,0,0,.412.229h0a.484.484,0,0,0,.412-.235L86.8,8.79A5.813,5.813,0,0,0,81.812,0Zm4.161,8.293-4.088,6.825L77.691,8.358a4.847,4.847,0,1,1,8.282-.065Z" transform="translate(-76)" fill="#c3d600"/>
      </g>
    </g>
    <g id="Group_17" data-name="Group 17" transform="translate(78.906 2.906)">
      <g id="Group_16" data-name="Group 16" transform="translate(0)">
        <path id="Path_60" data-name="Path 60" d="M168.906,90a2.906,2.906,0,1,0,2.906,2.906A2.909,2.909,0,0,0,168.906,90Zm0,4.85a1.944,1.944,0,1,1,1.941-1.944A1.945,1.945,0,0,1,168.906,94.85Z" transform="translate(-166 -90)" fill="#c3d600"/>
      </g>
    </g>
  </g>
</svg>
