<svg xmlns="http://www.w3.org/2000/svg" width="19.119" height="15.022" viewBox="0 0 19.119 15.022">
  <g id="_002-envelope" data-name="002-envelope" transform="translate(0 -54.82)">
    <g id="Group_13" data-name="Group 13" transform="translate(0 54.82)">
      <path id="Path_57" data-name="Path 57" d="M1.835,59.45q.363.256,2.187,1.52t2.8,1.947q.107.075.453.325t.576.406q.229.155.555.347a3.219,3.219,0,0,0,.614.288,1.691,1.691,0,0,0,.533.1H9.57a1.692,1.692,0,0,0,.534-.1A3.223,3.223,0,0,0,10.717,64q.325-.192.555-.347t.576-.406q.347-.251.453-.325l4.993-3.467a5.068,5.068,0,0,0,1.3-1.312,2.818,2.818,0,0,0,.523-1.611,1.722,1.722,0,0,0-1.707-1.707H1.707a1.524,1.524,0,0,0-1.264.555A2.154,2.154,0,0,0,0,56.762a2.492,2.492,0,0,0,.587,1.456A5.3,5.3,0,0,0,1.835,59.45Z" transform="translate(0 -54.82)" fill="#c3d600"/>
      <path id="Path_58" data-name="Path 58" d="M18.052,185.365q-3.5,2.368-5.313,3.681-.608.448-.987.7a6.092,6.092,0,0,1-1.008.512,3.07,3.07,0,0,1-1.173.261H9.549a3.071,3.071,0,0,1-1.174-.261,6.1,6.1,0,0,1-1.008-.512q-.379-.251-.987-.7-1.44-1.056-5.3-3.681A5.652,5.652,0,0,1,0,184.437v8.471a1.643,1.643,0,0,0,.5,1.206,1.644,1.644,0,0,0,1.206.5H17.412a1.712,1.712,0,0,0,1.707-1.707v-8.471A5.883,5.883,0,0,1,18.052,185.365Z" transform="translate(0 -179.593)" fill="#c3d600"/>
    </g>
  </g>
</svg>
