<svg xmlns="http://www.w3.org/2000/svg" width="17.406" height="14.616" viewBox="0 0 17.406 14.616">
  <g id="_002-headphones" data-name="002-headphones" transform="translate(0 -40.36)">
    <g id="Group_18" data-name="Group 18" transform="translate(0 40.36)">
      <path id="Path_61" data-name="Path 61" d="M16.356,49.4h-.039V47.967a7.614,7.614,0,0,0-15.228,0V49.4H1.049A1.019,1.019,0,0,0,0,50.413L0,53.1A1.063,1.063,0,0,0,1.052,54.16h.072a.978.978,0,0,0,1.022.816h.576a1.145,1.145,0,0,0,1.087-1.119V49.595a1.05,1.05,0,0,0-1.087-1.009H2.584v-.728a6.118,6.118,0,1,1,12.237,0v.728h-.137A1.05,1.05,0,0,0,13.6,49.595v4.262a1.145,1.145,0,0,0,1.087,1.119h.576a.978.978,0,0,0,1.022-.816h.072A1.08,1.08,0,0,0,17.4,53.077l0-2.647A1.033,1.033,0,0,0,16.356,49.4Z" transform="translate(0 -40.36)" fill="#c3d600"/>
    </g>
  </g>
</svg>
