<svg xmlns="http://www.w3.org/2000/svg" width="15.602" height="15.594" viewBox="0 0 15.602 15.594">
  <path id="Path_21710" data-name="Path 21710" d="M12.068,19.594H3.533A3.535,3.535,0,0,1,0,16.061V7.533A3.535,3.535,0,0,1,3.533,4h8.535A3.54,3.54,0,0,1,15.6,7.533v8.535A3.538,3.538,0,0,1,12.068,19.594ZM3.533,5.552a1.981,1.981,0,0,0-1.981,1.98v8.535A1.981,1.981,0,0,0,3.533,18.05h8.535a1.981,1.981,0,0,0,1.981-1.981V7.533a1.981,1.981,0,0,0-1.98-1.981H3.533ZM7.8,15.877a4.031,4.031,0,1,1,4.031-4.031A4.031,4.031,0,0,1,7.8,15.877Zm0-6.516a2.478,2.478,0,1,0,2.478,2.478A2.478,2.478,0,0,0,7.8,9.361Zm4.184-2.539a1.027,1.027,0,1,0,1.027,1.027,1.027,1.027,0,0,0-1.027-1.027Z" transform="translate(0 -4)" fill="#c3d600"/>
</svg>
