<svg id="linkedin" xmlns="http://www.w3.org/2000/svg" width="17" height="17" viewBox="0 0 17 17">
  <path id="Path_50" data-name="Path 50" d="M19.472,19.209h0V12.974c0-3.05-.657-5.4-4.222-5.4a3.7,3.7,0,0,0-3.334,1.832h-.05V7.859H8.489v11.35h3.52v-5.62c0-1.48.281-2.911,2.113-2.911,1.806,0,1.832,1.689,1.832,3.005v5.526Z" transform="translate(-2.476 -2.209)" fill="#c3d600"/>
  <path id="Path_51" data-name="Path 51" d="M.4,7.977H3.921v11.35H.4Z" transform="translate(-0.115 -2.327)" fill="#c3d600"/>
  <path id="Path_52" data-name="Path 52" d="M2.041,0A2.051,2.051,0,1,0,4.083,2.041,2.042,2.042,0,0,0,2.041,0Z" fill="#c3d600"/>
</svg>
