<svg id="Vector_Smart_Object" data-name="Vector Smart Object" xmlns="http://www.w3.org/2000/svg" xmlns:xlink="http://www.w3.org/1999/xlink" width="236" height="50" viewBox="0 0 236 50">
  <defs>
    <clipPath id="clip-path">
      <rect id="Rectangle_1" data-name="Rectangle 1" width="236" height="50" transform="translate(0 0)" fill="none"/>
    </clipPath>
  </defs>
  <path id="Path_32" data-name="Path 32" d="M19.244,8.982.5,41.019H5.337L23.97,8.982Z" fill="#fff"/>
  <path id="Path_33" data-name="Path 33" d="M25.294,41.018h4.84L48.767,8.982H44.041Z" fill="#fff"/>
  <g id="Group_6" data-name="Group 6">
    <g id="Group_5" data-name="Group 5" clip-path="url(#clip-path)">
      <path id="Path_34" data-name="Path 34" d="M14.047,47.579h0a24.365,24.365,0,0,0,28-4.9A25.321,25.321,0,0,0,48.09,17.352l-2.313,3.977a22.205,22.205,0,0,1,.3,3.67A21.866,21.866,0,0,1,39.8,40.392,21.221,21.221,0,0,1,15.66,44.777L38.82,4.562l-.051-.037-.052-.037-.052-.037-.1-.074-.052-.037L38.453,4.3,38.4,4.268l-.052-.035L38.3,4.2l-.054-.037-.052-.035-.054-.037-.054-.035-.054-.034-.035-.025-.017-.011-.055-.035-.052-.035-.054-.034-.032-.019-.023-.016-.054-.034-.054-.034L37.6,3.741l-.027-.018-.027-.018-.055-.034-.055-.033L37.378,3.6l-.021-.015-.032-.019-.055-.033-.055-.033-.055-.033-.017-.011-.036-.023-.056-.033-.055-.033-.166-.1-.055-.031-.056-.033-.009-.005-.046-.027-.056-.03-.056-.033-.055-.033h-.005l-.051-.029-.058-.031-.055-.031-.056-.03-.056-.033-.056-.03-.056-.03-.054-.029h0l-.056-.029-.056-.033-.059-.029-.047-.025-.009-.005-.058-.03-.058-.03-.056-.029L35.6,2.61,35.585,2.6l-.059-.029-.058-.029-.056-.029L35.373,2.5l-.02-.01L35.3,2.459A24.366,24.366,0,0,0,7.215,7.322,25.321,25.321,0,0,0,1.183,32.671L3.5,28.718A22.171,22.171,0,0,1,3.184,25,21.869,21.869,0,0,1,9.466,9.607a21.216,21.216,0,0,1,24.213-4.35L10.454,45.444l.054.037.054.038.052.038.035.025.019.014.054.037.054.037.054.038.027.018.027.018.054.037.054.037.055.037.017.012.036.025.054.035.055.037L11.26,46l.011.008.044.027.055.035.055.037.055.035h0l.054.033.055.035.054.035.051.031.005,0,.278.172.055.034.056.034.034.02.023.014.055.033.058.034.055.033.026.015.031.018.058.033.113.065.016.01.04.023.172.1.008,0,.048.027.058.033.058.031L13,47.04h0l.058.031.114.063.048.026.009,0,.059.031.058.03.058.03.039.02.019.01.059.031.058.029.09.046.027.014.177.087.021.012.036.018.059.029Z" fill="#fff"/>
      <path id="Path_35" data-name="Path 35" d="M113.889,39.422c-5.187,0-9.3-4.283-9.3-9.855s4.117-9.855,9.3-9.855c5.032,0,9.048,4.077,9.251,9.442v.826c-.2,5.368-4.219,9.442-9.251,9.442m9.251,3.658h4.068V16H123.14v4.023a12.941,12.941,0,0,0-9.506-4.126c-7.472,0-13.168,6.035-13.168,13.672s5.7,13.672,13.168,13.672a12.749,12.749,0,0,0,9.506-4.126Z" fill="#fff"/>
    </g>
  </g>
  <path id="Path_36" data-name="Path 36" d="M90.453,6.21V22.6H74.186V6.21H69.864V43.08h4.322v-16.4H90.453v16.4h4.319V6.21Z" fill="#fff"/>
  <g id="Group_8" data-name="Group 8">
    <g id="Group_7" data-name="Group 7" clip-path="url(#clip-path)">
      <path id="Path_37" data-name="Path 37" d="M231.932,43.079H236V27.812c0-7.482-4.932-11.918-11.185-11.918-6.2,0-11.133,4.436-11.133,11.918V43.079h4.067V27.708c0-5.261,3.153-8,7.066-8,3.965,0,7.117,2.736,7.117,8Z" fill="#fff"/>
      <path id="Path_38" data-name="Path 38" d="M194.569,39.422c-5.238,0-9.3-4.438-9.3-9.855,0-5.468,4.066-9.855,9.3-9.855s9.251,4.387,9.251,9.855c0,5.417-4.015,9.855-9.251,9.855m0-23.527a13.362,13.362,0,0,0-13.423,13.672,13.4,13.4,0,1,0,26.792,0,13.319,13.319,0,0,0-13.369-13.672" fill="#fff"/>
      <path id="Path_39" data-name="Path 39" d="M177.212,15.92c-.046,0-.085-.026-.132-.026-6.3,0-10.472,4.487-10.472,11.142V43.079h4.067V27.037c0-4.8,2.643-7.325,6.405-7.325.047,0,.086-.025.132-.027Z" fill="#fff"/>
      <path id="Path_40" data-name="Path 40" d="M146.374,39.422c-5.187,0-9.3-4.283-9.3-9.855s4.117-9.855,9.3-9.855c5.032,0,9.048,4.077,9.251,9.442v.826c-.2,5.368-4.219,9.442-9.251,9.442m9.251,3.658h4.067V6.185h-1.987c-.016,0-.03.008-.046.008s-.025-.007-.04-.008h-1.995V20.021a12.944,12.944,0,0,0-9.507-4.126c-7.471,0-13.166,6.035-13.166,13.672s5.7,13.672,13.166,13.672a12.752,12.752,0,0,0,9.507-4.126Z" fill="#fff"/>
    </g>
  </g>
</svg>
