<svg xmlns="http://www.w3.org/2000/svg" width="13.364" height="17.57" viewBox="0 0 13.364 17.57">
  <g id="_001-man-user" data-name="001-man-user" transform="translate(-41.895)">
    <path id="Path_53" data-name="Path 53" d="M108.072,8.593c1.954,0,3.537-1.924,3.537-4.3S111.09,0,108.072,0s-3.537,1.924-3.537,4.3S106.119,8.593,108.072,8.593Z" transform="translate(-59.495)" fill="#c3d600"/>
    <path id="Path_54" data-name="Path 54" d="M41.9,300.446c0-.145,0-.041,0,0Z" transform="translate(0 -285.293)" fill="#c3d600"/>
    <path id="Path_55" data-name="Path 55" d="M308.085,301.618c0-.04,0-.275,0,0Z" transform="translate(-252.827 -286.351)" fill="#c3d600"/>
    <path id="Path_56" data-name="Path 56" d="M55.263,183.8c-.066-4.134-.605-5.312-4.737-6.057a2.9,2.9,0,0,1-3.874,0c-4.086.737-4.659,1.9-4.734,5.923-.006.329-.009.346-.01.308,0,.071,0,.2,0,.434,0,0,.984,1.983,6.681,1.983S55.27,184.4,55.27,184.4c0-.148,0-.251,0-.321A2.663,2.663,0,0,1,55.263,183.8Z" transform="translate(-0.012 -168.817)" fill="#c3d600"/>
  </g>
</svg>
