<svg xmlns="http://www.w3.org/2000/svg" width="77" height="77" viewBox="0 0 77 77">
  <g id="scroll" transform="translate(-920 -953)">
    <circle id="Ellipse_6" data-name="Ellipse 6" cx="38.5" cy="38.5" r="38.5" transform="translate(920 953)" fill="#c3d600" opacity="0.878"/>
    <path id="Forma_1" data-name="Forma 1" d="M959.6,970h-3.3a12.272,12.272,0,0,0-12.173,12.623V1000.3a12.273,12.273,0,0,0,12.173,12.625h3.3a12.659,12.659,0,0,0,12.663-12.625V982.622A12.658,12.658,0,0,0,959.6,970Zm-1.534,6.615h.255a.725.725,0,0,1,.725.722v5.142a.724.724,0,0,1-.725.722h-.255a.724.724,0,0,1-.725-.722v-5.142A.725.725,0,0,1,958.061,976.614ZM970.6,1000.3a11,11,0,0,1-11.007,10.974h-3.3a10.638,10.638,0,0,1-10.517-10.974V982.622a10.638,10.638,0,0,1,10.517-10.973h1.058v3.423a2.377,2.377,0,0,0-1.67,2.265v5.141a2.378,2.378,0,0,0,1.67,2.265v4.247a.828.828,0,0,0,1.656,0v-4.24a2.378,2.378,0,0,0,1.69-2.271v-5.142a2.377,2.377,0,0,0-1.69-2.27v-3.416h.589A11,11,0,0,1,970.6,982.622Z" fill="#fff"/>
  </g>
</svg>
